<?xml version="1.0" encoding="UTF-8"?>
<svg id="Layer_1" xmlns="http://www.w3.org/2000/svg" version="1.1" viewBox="0 0 740.27 322.14">
  <!-- Generator: Adobe Illustrator 30.1.0, SVG Export Plug-In . SVG Version: 2.1.1 Build 136)  -->
  <defs>
    <style>
      .st0 {
        fill: #fff;
      }
    </style>
  </defs>
  <path class="st0" d="M322.41,145.31v81.07c-10.87,0-19.68-8.82-19.68-19.69v-61.38h-11.2v-15.06h11.2v-15.06c0-7.59,2.18-13.89,6.56-18.91,4.88-5.53,11.64-8.3,20.27-8.3h12.35v16.79h-8.68c-7.21,0-10.81,3.79-10.81,11.39v14.09h19.49v15.06h-19.49Z"/>
  <path class="st0" d="M389.77,245.87c-1.8,5.14-4.18,9.2-7.14,12.16-4.76,4.76-11.45,7.14-20.07,7.14h-7.92v-17.75h5.02c6.82,0,11.52-3.48,14.09-10.43l5.41-15.24-34.16-93.22h20.85l23.35,68.9,22.78-68.9h21.04l-43.23,117.35Z"/>
  <path class="st0" d="M517.54,188.74c-.26,4.12-.71,7.85-1.35,11.2-1.8,8.23-4.89,14.54-9.26,18.91-5.79,5.79-13.7,8.68-23.74,8.68-10.81,0-19.37-3.73-25.67-11.19v49.61c-10.88,0-19.69-8.81-19.69-19.69v-117.73h19.31v10.42c6.43-7.72,15.06-11.58,25.86-11.58,10.17,0,18.14,2.9,23.93,8.68,4.37,4.38,7.46,10.62,9.26,18.72.64,3.35,1.09,7.08,1.35,11.2.25,3.22.39,7.01.39,11.39s-.13,8.17-.39,11.39M497.66,165c-.65-4.12-1.61-7.59-2.89-10.42-3.09-6.44-8.69-9.66-16.79-9.66s-13.7,3.22-16.79,9.66c-1.42,2.83-2.38,6.3-2.9,10.42-.52,3.35-.77,7.46-.77,12.35s.25,9.01.77,12.35c.52,4.24,1.48,7.72,2.9,10.42,3.09,6.57,8.68,9.85,16.79,9.85s13.7-3.28,16.79-9.85c1.28-2.7,2.25-6.18,2.89-10.42.39-3.34.58-7.46.58-12.35s-.2-9-.58-12.35"/>
  <path class="st0" d="M555.37,226.37c-8.88,0-15.7-2.7-20.46-8.11-4.24-4.76-6.37-11.06-6.37-18.91v-90.72c0-10.87,8.81-19.68,19.68-19.68v109.25c0,7.59,3.54,11.39,10.62,11.39h8.68v16.79h-12.16Z"/>
  <path class="st0" d="M632.76,226.37v-9.85c-6.69,7.34-15.38,11-26.06,11-9.91,0-17.95-2.96-24.12-8.88-6.57-6.43-9.85-15.63-9.85-27.6v-42.85c0-10.87,8.81-19.69,19.68-19.69v59.64c0,14.55,6.56,21.81,19.69,21.81s20.27-7.27,20.27-21.81v-39.95c0-10.87,8.81-19.69,19.68-19.69v97.86h-19.3Z"/>
  <path class="st0" d="M728.69,219.62c-7.33,5.28-17.05,7.91-29.14,7.91-8.75,0-16.15-.9-22.2-2.7-7.21-2.19-13.51-5.98-18.91-11.39l12.93-12.93c3.6,3.73,8.1,6.44,13.51,8.11,4.25,1.42,9.13,2.12,14.67,2.12,14.28,0,21.42-4.5,21.42-13.51,0-6.95-4.37-10.81-13.12-11.58l-15.63-1.35c-19.31-1.67-28.96-10.68-28.96-27.02,0-9.26,3.6-16.66,10.81-22.2,6.82-5.14,15.5-7.72,26.06-7.72,15.83,0,27.92,3.66,36.29,11l-12.36,12.54c-5.66-4.75-13.7-7.14-24.12-7.14-11.84,0-17.76,4.18-17.76,12.54,0,6.69,4.5,10.43,13.51,11.2l15.44,1.35c19.42,1.67,29.14,10.88,29.14,27.6,0,9.91-3.86,17.63-11.58,23.16"/>
  <path class="st0" d="M489.38,258.58c-.03.78-.09,1.46-.18,2.03-.24,1.49-.8,2.68-1.68,3.56-1.17,1.16-2.76,1.74-4.79,1.74h-6.5v-18.53h6.5c2.03,0,3.62.58,4.79,1.74.88.89,1.44,2.03,1.68,3.43.09.55.15,1.21.18,1.95v4.06ZM486.55,254.76c-.02-.57-.05-1.06-.1-1.46-.14-.94-.42-1.65-.86-2.13-.76-.83-1.81-1.25-3.15-1.25h-3.41v13.48h3.41c1.34,0,2.39-.42,3.15-1.25.43-.48.72-1.24.86-2.27.05-.42.08-.93.1-1.56.02-.4.03-1,.03-1.8s0-1.37-.03-1.77"/>
  <polygon class="st0" points="499.27 265.92 499.27 247.4 511.11 247.4 511.11 249.92 502.08 249.92 502.08 255.33 509.78 255.33 509.78 257.83 502.08 257.83 502.08 263.39 511.11 263.39 511.11 265.92 499.27 265.92"/>
  <polygon class="st0" points="532.06 265.92 523.5 252.88 523.5 265.92 520.69 265.92 520.69 247.4 523.26 247.4 531.82 260.4 531.82 247.4 534.63 247.4 534.63 265.92 532.06 265.92"/>
  <polygon class="st0" points="552.5 249.92 552.5 265.92 549.7 265.92 549.7 249.92 544.6 249.92 544.6 247.39 557.6 247.39 557.6 249.92 552.5 249.92"/>
  <path class="st0" d="M577.17,265.92l-1.27-3.72h-7.31l-1.27,3.72h-2.99l6.79-18.53h2.26l6.8,18.53h-3ZM572.3,251.58l-2.89,8.22h5.69l-2.81-8.22Z"/>
  <polygon class="st0" points="590.6 265.92 590.6 247.4 593.4 247.4 593.4 263.39 602.33 263.39 602.33 265.92 590.6 265.92"/>
  <path class="st0" d="M639.98,260.38c-.31,1.8-1.08,3.22-2.29,4.24-1.16.97-2.6,1.46-4.32,1.46-1.93,0-3.55-.66-4.87-1.98-.83-.84-1.36-1.85-1.59-3.07-.1-.52-.16-1.18-.18-1.95-.02-.33-.03-.71-.03-1.14v-2.55c0-.43,0-.82.03-1.14.01-.78.08-1.44.18-1.95.23-1.21.76-2.24,1.59-3.07,1.32-1.31,2.94-1.97,4.87-1.97,3.73,0,5.93,1.89,6.61,5.69h-2.86c-.5-2.12-1.76-3.17-3.75-3.17-1.13,0-2.04.37-2.74,1.12-.45.5-.75,1.12-.91,1.87-.14.75-.21,2.05-.21,3.9s.07,3.16.21,3.9c.16.74.46,1.37.91,1.87.7.74,1.61,1.12,2.74,1.12,2.01,0,3.27-1.06,3.77-3.17h2.83Z"/>
  <polygon class="st0" points="649.45 265.92 649.45 247.4 652.26 247.4 652.26 263.39 661.18 263.39 661.18 265.92 649.45 265.92"/>
  <rect class="st0" x="671.15" y="247.39" width="2.81" height="18.52"/>
  <polygon class="st0" points="696.41 265.92 687.85 252.88 687.85 265.92 685.04 265.92 685.04 247.4 687.61 247.4 696.17 260.4 696.17 247.4 698.99 247.4 698.99 265.92 696.41 265.92"/>
  <rect class="st0" x="709.55" y="247.39" width="2.81" height="18.52"/>
  <path class="st0" d="M735.51,260.38c-.31,1.8-1.08,3.22-2.29,4.24-1.16.97-2.6,1.46-4.32,1.46-1.93,0-3.55-.66-4.86-1.98-.84-.84-1.36-1.85-1.59-3.07-.1-.52-.16-1.18-.18-1.95-.02-.33-.03-.71-.03-1.14v-2.55c0-.43,0-.82.03-1.14.01-.78.08-1.44.18-1.95.23-1.21.76-2.24,1.59-3.07,1.31-1.31,2.94-1.97,4.86-1.97,3.73,0,5.93,1.89,6.61,5.69h-2.86c-.5-2.12-1.76-3.17-3.75-3.17-1.13,0-2.04.37-2.74,1.12-.45.5-.75,1.12-.91,1.87-.14.75-.21,2.05-.21,3.9s.07,3.16.21,3.9c.16.74.46,1.37.91,1.87.7.74,1.61,1.12,2.74,1.12,2.01,0,3.27-1.06,3.77-3.17h2.83Z"/>
  <polygon class="st0" points="88.55 92.02 68.26 92.02 68.26 71.74 54.74 71.74 54.74 92.02 34.46 92.02 34.46 105.55 54.74 105.55 54.74 125.83 68.26 125.83 68.26 105.55 88.55 105.55 88.55 92.02"/>
  <path class="st0" d="M165.35,63.18S134.19-17.03,57.65,3.3C38.13,8.49-7.61,33.18,1.09,105.94c2.72,22.78,18.01,106.8,78.48,198.68,0,0-39.99-123.45-47.13-157.67-4.64-22.24-24.34-89.2,26.4-116.9,26.8-14.63,73.87-.66,106.51,33.13"/>
  <path class="st0" d="M235.98,40.03s-30.54,119.23-78.2,113.12c-21.04-2.7-43.4-30.42-60.06-60.72,0,0,14.34,71.91,60.98,78.55,39.84,5.67,64.91-39.45,71.18-68.29,0,0,1.65,42.14-11.86,102.15-6.71,29.82-26.13,116.32-67.85,96.83-13.57-6.34-32.74-33.15-56.1-89.22,0,0,15.37,76.76,55.84,104.16,20.92,14.17,50.65,1.51,70.59-43.14,24.8-55.52,40.86-147.1,15.48-233.46"/>
</svg>